<?xml version="1.0" encoding="UTF-8" standalone="no"?>
<!-- Created with Inkscape (http://www.inkscape.org/) -->

<svg
   xmlns:dc="http://purl.org/dc/elements/1.1/"
   xmlns:cc="http://creativecommons.org/ns#"
   xmlns:rdf="http://www.w3.org/1999/02/22-rdf-syntax-ns#"
   xmlns:svg="http://www.w3.org/2000/svg"
   xmlns="http://www.w3.org/2000/svg"
   xmlns:sodipodi="http://sodipodi.sourceforge.net/DTD/sodipodi-0.dtd"
   xmlns:inkscape="http://www.inkscape.org/namespaces/inkscape"
   width="2048"
   height="2048"
   id="svg2"
   version="1.1"
   inkscape:version="0.48.5 r10040"
   sodipodi:docname="cameraicon.svg">
  <defs
     id="defs4" />
  <sodipodi:namedview
     id="base"
     pagecolor="#666699"
     bordercolor="#666666"
     borderopacity="1.0"
     inkscape:pageopacity="1"
     inkscape:pageshadow="2"
     inkscape:zoom="0.39794922"
     inkscape:cx="1024"
     inkscape:cy="1024"
     inkscape:document-units="px"
     inkscape:current-layer="svg2"
     showgrid="false"
     inkscape:window-width="1400"
     inkscape:window-height="1000"
     inkscape:window-x="158"
     inkscape:window-y="1020"
     inkscape:window-maximized="0" />
  <metadata
     id="metadata7">
    <rdf:RDF>
      <cc:Work
         rdf:about="">
        <dc:format>image/svg+xml</dc:format>
        <dc:type
           rdf:resource="http://purl.org/dc/dcmitype/StillImage" />
        <dc:title></dc:title>
      </cc:Work>
    </rdf:RDF>
  </metadata>
  <g
     inkscape:label="レイヤー 1"
     inkscape:groupmode="layer"
     id="layer1"
     transform="translate(0,995.63782)"
     style="opacity:1">
    <path
       style="fill:#666699;fill-opacity:0"
       d="m -20.665025,1023.6158 0,-1056.896588 1043.103425,0 1043.1035,0 0,1056.896588 0,1056.8965 -1043.1035,0 -1043.103425,0 0,-1056.8965 z"
       id="path2997"
       inkscape:connector-curvature="0"
       transform="translate(0,-995.63782)" />
    <path
       style="fill:#666699;fill-opacity:0"
       d="m -20.320197,1023.6158 0,-1056.896588 1041.379297,0 1041.3793,0 0,1056.896588 0,1056.8965 -1041.3793,0 -1041.379297,0 0,-1056.8965 z"
       id="path3767"
       inkscape:connector-curvature="0"
       transform="translate(0,-995.63782)" />
    <path
       style="fill:#666699;fill-opacity:0"
       d="m -20.320197,1023.6158 0,-1056.896588 1041.379297,0 1041.3793,0 0,1056.896588 0,1056.8965 -1041.3793,0 -1041.379297,0 0,-1056.8965 z"
       id="path3769"
       inkscape:connector-curvature="0"
       transform="translate(0,-995.63782)" />
    <path
       style="fill:#666699;fill-opacity:0;stroke:#555590;stroke-opacity:0"
       d="m -20.320197,1023.6158 0,-1056.896588 1041.379297,0 1041.3793,0 0,1056.896588 0,1056.8965 -1041.3793,0 -1041.379297,0 0,-1056.8965 z"
       id="path3771"
       inkscape:connector-curvature="0"
       transform="translate(0,-995.63782)" />
  </g>
  <g
     inkscape:groupmode="layer"
     id="layer2"
     inkscape:label="camera-outline" />
</svg>
